<svg xmlns="http://www.w3.org/2000/svg" version="1.1" xmlns:xlink="http://www.w3.org/1999/xlink" xmlns:svgjs="http://svgjs.dev/svgjs" width="1500" height="1500" viewBox="0 0 1500 1500"><rect width="1500" height="1500" fill="#cb0003"></rect><g transform="matrix(0.6666666666666666,0,0,0.6666666666666666,248.44236760124625,189.33333333333348)"><svg viewBox="0 0 321 360" data-background-color="#cb0003" preserveAspectRatio="xMidYMid meet" height="1682" width="1500" xmlns="http://www.w3.org/2000/svg" xmlns:xlink="http://www.w3.org/1999/xlink"><g id="tight-bounds" transform="matrix(1,0,0,1,0.5,0)"><svg viewBox="0 0 320 360" height="360" width="320"><g><svg></svg></g><g><svg viewBox="0 0 320 360" height="360" width="320"><g><path d="M20.961 227.22l3.726 4.658-1.863-6.056c-0.466-2.795-3.726 0.466-1.863 1.398M25.153 224.425c1.397 2.329 2.795 4.658 2.795 6.987 0 3.261 2.795 4.658 5.123 5.589-3.261-3.726-5.124-13.974-7.918-12.576M204.017 26.929c7.918 0 15.371-0.932 23.756 0.931 20.495 5.124 37.729 15.371 49.374 29.811l32.606 52.169c1.397 13.042 4.192 27.482 3.726 43.319 3.261 0 2.795-4.658 6.521-5.59-3.726 9.316-5.59 20.961-6.521 34.469-2.329-7.453 0-18.632 0.466-24.687-3.261 5.124-5.124 1.397-5.124-0.932 0.466-3.726-1.397-3.261-2.795-4.658-5.124-4.658-8.384-9.782-12.11-17.7 2.329-6.055 2.795-14.905-4.658-19.563-2.329-1.397-5.124-3.726-6.521-7.453-1.863-5.124-5.124-11.179-4.193-19.097 0.466-2.329-6.987 5.124-11.179 1.863-18.166-12.576-36.332-27.016-58.224-39.127-11.645 0-20.029-4.192-24.221-9.316-3.726-4.658-0.932-10.713 4.658-11.179 3.261 0 6.987-0.932 9.782 0.932 0.466-1.863 2.329-4.192 4.657-4.192M157.904 16.215l0.932 0.466c4.658 0.932 6.987 7.453 12.11 5.124 0 3.261 0.466 6.521-0.466 8.85-1.397 3.726-5.59 3.726-8.85 3.726-31.208-1.863-49.374 11.179-68.471 22.358-5.124 3.261-10.713 5.59-14.906 9.782-20.029 18.632-41.921 35.866-47.045 70.335l-4.192 38.195c-0.466 4.192-5.124 8.384-4.192 13.508l3.26 22.824c-3.261-3.261-5.124 0.932-4.192 2.795 0.466 1.397 2.329 6.055 5.124 1.863 3.726 6.987 7.453 20.495 12.576 26.55 15.837 18.632 36.332 35.4 53.101 52.169 4.192-0.932 7.453-0.932 8.384-3.727 1.397 2.795-1.397 5.59-3.726 6.056 7.453 4.658 15.837 8.85 27.016 9.781 14.44 0.932 27.948 3.261 40.524 6.522 6.521-1.863 13.042-2.795 20.029-3.261 2.329 0 3.726-3.726 6.521-4.658l0.466-4.658c2.795 4.192 2.329-1.397 0.466-4.192 3.261 2.795 4.192 5.124 5.589 6.987 0-1.397 3.726-6.521 3.727-0.466l0.931-6.055c1.397-0.932 1.863 5.124 3.261 0.931 1.397-4.192 4.192-0.932 6.987-2.329-0.932 1.863-0.466 5.59 2.794 3.261l3.727-3.261c2.329 5.59 6.055 3.261 7.918 2.329 20.495-13.042 40.99-28.413 60.553-43.784l-0.466 6.055 2.329-7.453c2.329 2.329 4.192 0.466 5.124-0.931 2.795-4.658 6.521-9.316 12.577-13.508-7.453 20.029-16.303 35.866-27.482 48.908l-4.658 5.59c0 3.261-0.932 7.453-4.658 7.918-1.863 0.466-5.59-0.932-8.384 1.863-1.397 1.863 3.261 5.59-0.466 2.795-3.261-2.329-6.521 0-10.248 0.932-2.795 0.932 1.863 3.726 2.795 5.589 0.932 1.863 1.863 3.726 1.398 6.056l-5.124-5.59c-6.055 3.261-9.782 9.316-14.906 13.974-2.329 1.863-1.397 5.124-1.397 7.918-3.261 0-6.987-0.932-8.85 0.932-1.397 1.863-0.932 4.658-0.932 7.453-4.658-0.466-5.124-7.453-9.315-6.056-4.192 0.932-8.85 1.397-12.577 3.727 2.795 5.59-4.658 2.329-3.726 3.26-6.987-4.192-13.042-7.453-20.495-4.658-15.837-5.124-35.4-2.795-49.84-0.931 0-2.329 0.466-4.658-0.466-5.124-0.932 2.329-3.726 1.397-3.26 1.397-8.85-6.055-17.7-9.782-27.016-14.905-8.384 0.932-16.303-3.261-18.632-5.59-6.521-6.055-13.974-2.795-20.029-4.192-13.042-3.261-17.7-16.769-19.098-26.084-0.932-4.658-4.658-6.521-6.055-6.056-6.055-19.563-15.371-37.263-22.824-55.429-1.863-4.658-1.397-9.316-1.397-14.44 2.329 0.932 4.658 0.466 4.192-2.794-2.329-15.371-7.918-27.016-13.974-38.195 3.261-15.837 3.726-34.469 11.179-48.443 6.521-12.576 18.632-19.098 27.016-29.811 2.795-3.726 2.795-8.85 5.59-12.11 9.316-9.316 18.632-19.098 28.879-27.482 4.658-3.726 10.247 0 17.234-1.397 2.329-8.384 11.645-15.837 20.495-13.508 3.726 0.932 11.179-8.85 13.508-9.782 3.726-1.397 1.863 3.726 1.863 6.987 8.85-6.987 20.961-10.713 32.14-14.906" fill="#d4dcf7" fill-rule="nonzero" stroke="none" stroke-width="1" stroke-linecap="butt" stroke-linejoin="miter" stroke-miterlimit="10" stroke-dasharray="" stroke-dashoffset="0" font-family="none" font-weight="none" font-size="none" text-anchor="none" style="mix-blend-mode: normal" data-fill-palette-color="tertiary"></path></g><g transform="matrix(1,0,0,1,64,104.98269663794032)"><svg viewBox="0 0 192 150.03460672411936" height="150.03460672411936" width="192"><g><svg viewBox="0 0 192 150.03460672411936" height="150.03460672411936" width="192"><g><svg viewBox="0 0 192 150.03460672411936" height="150.03460672411936" width="192"><g><svg viewBox="0 0 192 150.03460672411936" height="150.03460672411936" width="192"><g id="textblocktransform"><svg viewBox="0 0 192 150.03460672411936" height="150.03460672411936" width="192" id="textblock"><g><svg viewBox="0 0 192 106.0657276995305" height="106.0657276995305" width="192"><g transform="matrix(1,0,0,1,0,0)"><svg width="192" viewBox="-0.85 -34.65 63.9 35.3" height="106.0657276995305" data-palette-color="#d4dcf7"><path d="M2.95 0.65Q1.4 0.65 0.38-0.25-0.65-1.15-0.85-2.5L-0.85-2.5 1.5-3.6Q1.65-3 2.05-2.58 2.45-2.15 3-2.15L3-2.15Q3.6-2.15 4.08-2.58 4.55-3 5.05-3.95L5.05-3.95 21.5-34.65 22.5-34.65 32.05 0 29 0 25.85-11.35 12.05-11.35 7.2-2Q6.5-0.75 5.35-0.05 4.2 0.65 2.95 0.65L2.95 0.65ZM13.6-14.15L25.05-14.15 21.6-27.6 21.35-29.6 20.6-27.6 13.6-14.15ZM48.4-31.4L40.9-31.4Q40.15-31.4 39.6-30.83 39.05-30.25 38.95-29.6L38.95-29.6 36.2-29.8Q36.4-31.55 37.8-32.95L37.8-32.95Q39.3-34.2 41-34.2L41-34.2 63.05-34.2 62.65-31.4 51.3-31.4 47.15 0 44.25 0 48.4-31.4Z" opacity="1" transform="matrix(1,0,0,1,0,0)" fill="#d4dcf7" class="wordmark-text-0" data-fill-palette-color="primary" id="text-0"></path></svg></g></svg></g><g transform="matrix(1,0,0,1,0,121.54326294835678)"><svg viewBox="0 0 192 28.49134377576257" height="28.49134377576257" width="192"><g transform="matrix(1,0,0,1,0,0)"><svg width="192" viewBox="0.75 -35.5 242.57 36" height="28.49134377576257" data-palette-color="#d4dcf7"><path d="M4.3 0L0.75-35 6.05-35 8.5-8.1 8.6-8.1 11.2-35 17.2-35 19.8-8.1 19.9-8.1 22.35-35 27.1-35 23.55 0 16.7 0 14.2-23.6 14.1-23.6 11.6 0 4.3 0ZM29.9 0L29.9-35 44.9-35 44.9-30 35.4-30 35.4-20.75 42.95-20.75 42.95-15.75 35.4-15.75 35.4-5 44.9-5 44.9 0 29.9 0ZM48.05 0L48.05-35 56.35-35Q60.6-35 62.55-33.02 64.5-31.05 64.5-26.95L64.5-26.95 64.5-25.55Q64.5-22.85 63.62-21.15 62.75-19.45 60.95-18.7L60.95-18.7 60.95-18.6Q65.05-17.2 65.05-11.3L65.05-11.3 65.05-8.3Q65.05-4.25 62.92-2.13 60.8 0 56.7 0L56.7 0 48.05 0ZM53.55-20.75L55.7-20.75Q57.35-20.75 58.17-21.6 59-22.45 59-24.45L59-24.45 59-26.4Q59-28.3 58.32-29.15 57.65-30 56.2-30L56.2-30 53.55-30 53.55-20.75ZM53.55-5L56.7-5Q58.15-5 58.85-5.78 59.55-6.55 59.55-8.45L59.55-8.45 59.55-11.5Q59.55-13.9 58.72-14.83 57.9-15.75 56-15.75L56-15.75 53.55-15.75 53.55-5ZM76.24 0L76.24-35 84.64-35Q88.74-35 90.79-32.8 92.84-30.6 92.84-26.35L92.84-26.35 92.84-8.65Q92.84-4.4 90.79-2.2 88.74 0 84.64 0L84.64 0 76.24 0ZM81.74-5L84.54-5Q85.89-5 86.62-5.8 87.34-6.6 87.34-8.4L87.34-8.4 87.34-26.6Q87.34-28.4 86.62-29.2 85.89-30 84.54-30L84.54-30 81.74-30 81.74-5ZM96.54 0L96.54-35 111.54-35 111.54-30 102.04-30 102.04-20.75 109.59-20.75 109.59-15.75 102.04-15.75 102.04-5 111.54-5 111.54 0 96.54 0ZM118.54 0L113.24-35 118.79-35 122.39-7.85 122.49-7.85 126.09-35 131.14-35 125.84 0 118.54 0ZM133.78 0L133.78-35 148.78-35 148.78-30 139.28-30 139.28-20.75 146.83-20.75 146.83-15.75 139.28-15.75 139.28-5 148.78-5 148.78 0 133.78 0ZM151.93 0L151.93-35 157.43-35 157.43-5 166.48-5 166.48 0 151.93 0ZM176.88 0.5Q172.83 0.5 170.68-1.8 168.53-4.1 168.53-8.3L168.53-8.3 168.53-26.7Q168.53-30.9 170.68-33.2 172.83-35.5 176.88-35.5L176.88-35.5Q180.93-35.5 183.08-33.2 185.23-30.9 185.23-26.7L185.23-26.7 185.23-8.3Q185.23-4.1 183.08-1.8 180.93 0.5 176.88 0.5L176.88 0.5ZM176.88-4.5Q179.73-4.5 179.73-7.95L179.73-7.95 179.73-27.05Q179.73-30.5 176.88-30.5L176.88-30.5Q174.03-30.5 174.03-27.05L174.03-27.05 174.03-7.95Q174.03-4.5 176.88-4.5L176.88-4.5ZM188.93 0L188.93-35 197.03-35Q201.13-35 203.18-32.8 205.23-30.6 205.23-26.35L205.23-26.35 205.23-22.9Q205.23-18.65 203.18-16.45 201.13-14.25 197.03-14.25L197.03-14.25 194.43-14.25 194.43 0 188.93 0ZM194.43-19.25L197.03-19.25Q198.38-19.25 199.05-20 199.73-20.75 199.73-22.55L199.73-22.55 199.73-26.7Q199.73-28.5 199.05-29.25 198.38-30 197.03-30L197.03-30 194.43-30 194.43-19.25ZM208.22 0L208.22-35 223.22-35 223.22-30 213.72-30 213.72-20.75 221.27-20.75 221.27-15.75 213.72-15.75 213.72-5 223.22-5 223.22 0 208.22 0ZM226.37 0L226.37-35 234.52-35Q238.77-35 240.72-33.02 242.67-31.05 242.67-26.95L242.67-26.95 242.67-24.8Q242.67-19.35 239.07-17.9L239.07-17.9 239.07-17.8Q241.07-17.2 241.9-15.35 242.72-13.5 242.72-10.4L242.72-10.4 242.72-4.25Q242.72-2.75 242.82-1.83 242.92-0.9 243.32 0L243.32 0 237.72 0Q237.42-0.85 237.32-1.6 237.22-2.35 237.22-4.3L237.22-4.3 237.22-10.7Q237.22-13.1 236.45-14.05 235.67-15 233.77-15L233.77-15 231.87-15 231.87 0 226.37 0ZM231.87-20L233.87-20Q235.52-20 236.35-20.85 237.17-21.7 237.17-23.7L237.17-23.7 237.17-26.4Q237.17-28.3 236.5-29.15 235.82-30 234.37-30L234.37-30 231.87-30 231.87-20Z" opacity="1" transform="matrix(1,0,0,1,0,0)" fill="#d4dcf7" class="slogan-text-1" data-fill-palette-color="secondary" id="text-1"></path></svg></g></svg></g></svg></g></svg></g><g></g></svg></g></svg></g></svg></g></svg></g><defs></defs></svg><rect width="320" height="360" fill="none" stroke="none" visibility="hidden"></rect></g></svg></g></svg>